<svg width="83" height="29" viewBox="0 0 83 29" fill="none" xmlns="http://www.w3.org/2000/svg">
<mask id="mask0_2280_3542" style="mask-type:luminance" maskUnits="userSpaceOnUse" x="45" y="0" width="1" height="3">
<path d="M45.0127 0H45.596V2.11565H45.0127V0Z" fill="white"/>
</mask>
<g mask="url(#mask0_2280_3542)">
<path d="M45.0156 0.209115V1.70678C45.0156 1.81818 45.1136 1.90857 45.2344 1.90857C45.3551 1.90857 45.4531 1.81818 45.4531 1.70678V0.209115C45.4531 0.0977096 45.3551 0.00732422 45.2344 0.00732422C45.1136 0.00732422 45.0156 0.0977096 45.0156 0.209115Z" fill="white"/>
</g>
<path d="M0 28.1771L1.67706 27.766V10.2217L0 9.81054V9.39941H14.9568V14.3329H14.1183C13.7628 14.0592 13.4541 13.7118 13.1932 13.2917C12.5973 12.303 12.3 11.2338 12.3 10.0831H6.28897V18.7168H9.50638C9.63626 18.023 9.87779 17.375 10.231 16.7728C10.3791 16.4991 10.5568 16.2344 10.7642 15.9774H11.6027V22.1443H10.7642C10.5568 21.8884 10.3791 21.6237 10.231 21.3488C9.87779 20.7478 9.63626 20.0998 9.50638 19.4049H6.28897V27.766L7.96603 28.1771V28.5882H0V28.1771Z" fill="white"/>
<path d="M16.7715 28.1771L18.4485 27.766V10.2217L16.7715 9.81054V9.39941H20.4082C22.0852 9.39941 22.9237 10.2217 22.9237 11.8662V27.766L24.6008 28.1771V28.5882H16.7715V28.1771Z" fill="white"/>
<path d="M31.7301 28.9997C30.0712 28.9997 28.7929 28.6522 27.8974 27.9584C27.0042 27.2647 26.5576 26.3787 26.5576 25.2995C26.5576 24.5879 26.7148 23.8829 27.0316 23.1858C27.1614 22.8585 27.3289 22.558 27.5329 22.2831C28.2985 22.1021 29.1279 21.9379 30.0211 21.7916C32.0354 21.4609 33.815 21.2598 35.3622 21.1883V20.366C35.3622 18.3372 35.1093 16.9385 34.6057 16.1699C34.1044 15.4013 33.3308 15.0169 32.2861 15.0169C31.8964 15.0169 31.5626 15.0639 31.2835 15.1555L30.8915 15.294V19.4053L30.527 19.4857C30.2285 19.5214 29.9767 19.5393 29.7705 19.5393C29.1381 19.5393 28.6312 19.3539 28.2483 18.9807C27.8655 18.6053 27.6741 18.1071 27.6741 17.4837C27.6741 16.6436 28.1071 15.9319 28.9729 15.3476C29.8411 14.7611 31.1331 14.4673 32.8466 14.4673C34.3015 14.4673 35.5547 14.7198 36.6063 15.2225C37.6602 15.7264 38.4622 16.4224 39.0125 17.3094C39.5617 18.1942 39.8374 19.2131 39.8374 20.366V27.7663L41.5144 28.1774V28.5885H38.9988C37.88 28.5885 37.013 28.2511 36.3967 27.5741C36.1346 27.3004 35.9296 26.953 35.7814 26.5329C35.5194 26.9887 35.2129 27.3998 34.8609 27.7663C34.0224 28.5885 32.9788 28.9997 31.7301 28.9997ZM32.8466 28.0389C33.5359 28.0389 34.1602 27.6747 34.7196 26.944C34.9258 26.6703 35.14 26.305 35.3622 25.8492V21.872C34.5054 21.872 33.6851 21.9189 32.9013 22.0105C32.3236 22.082 31.9329 22.1267 31.7301 22.1446C31.6355 22.3479 31.5409 22.6216 31.4475 22.9668C31.2618 23.6617 31.1695 24.3466 31.1695 25.0225C31.1695 26.048 31.3268 26.8077 31.6435 27.3015C31.9625 27.7931 32.3635 28.0389 32.8466 28.0389Z" fill="white"/>
<path d="M51.0186 28.1772L52.6956 27.7661V15.7049L51.0186 15.2938V14.8827H53.5387C54.6381 14.8827 55.504 15.2301 56.1363 15.9239C56.379 16.1987 56.5841 16.5361 56.7515 16.9383C57.0307 16.5361 57.3759 16.1697 57.786 15.839C58.718 15.1095 59.7616 14.7441 60.9169 14.7441C61.9035 14.7441 62.644 14.9676 63.1362 15.4145C63.6307 15.8613 63.8791 16.5071 63.8791 17.3494C63.8791 17.9695 63.6876 18.4666 63.3048 18.842C62.9243 19.2174 62.4173 19.405 61.7827 19.405C61.5207 19.405 61.2609 19.3872 61.0034 19.3514L60.6662 19.2665V15.4279C59.7149 15.4279 58.8479 15.7943 58.064 16.5272C57.6926 16.8914 57.3953 17.2556 57.1708 17.622V27.7661L58.8479 28.1772V28.5883H51.0186V28.1772Z" fill="white"/>
<path d="M64.4394 28.1771L66.677 27.3548L71.4302 20.473L65.278 10.2217L63.8789 9.81054V9.39941H67.9348C68.8668 9.39941 69.6085 9.59157 70.1588 9.97588C70.7079 10.358 71.2252 10.9411 71.7082 11.7276L74.3924 16.2232L78.2797 10.6328L76.1834 9.81054V9.39941H81.4926V9.81054L79.2596 10.6328L74.8664 16.965L81.3559 27.766L82.7504 28.1771V28.5882H78.699C77.7841 28.5882 77.047 28.3961 76.4888 28.0117C75.9294 27.6274 75.4087 27.0443 74.9256 26.26L71.9042 21.2416L67.6568 27.3548L69.7532 28.1771V28.5882H64.4394V28.1771Z" fill="white"/>
<path d="M47.9537 3.56891C47.3374 2.9578 46.5136 2.61371 45.6375 2.60254C45.6238 2.60254 45.6102 2.60254 45.5965 2.60254C43.8032 2.60254 42.3198 4.02025 42.2811 5.78094C42.2629 6.57637 42.542 7.34611 43.0615 7.95051C43.7542 8.756 44.1017 9.16043 44.1017 10.1413V11.9288C44.1017 12.0472 44.2008 12.1433 44.3216 12.1433H44.488C44.5893 12.6505 45.0496 13.0371 45.5965 13.0371C46.1445 13.0371 46.6048 12.6539 46.705 12.1433H46.8725C46.9933 12.1433 47.0913 12.0472 47.0913 11.9288V10.1413C47.0913 9.16378 47.4365 8.76047 48.1235 7.96057L48.1372 7.94493C48.6384 7.35952 48.9142 6.61883 48.9142 5.85355C48.9119 4.9922 48.5724 4.18112 47.9537 3.56891ZM45.5965 12.6081C45.2934 12.6081 45.0325 12.4148 44.9403 12.1433H46.2539C46.1605 12.4148 45.9007 12.6081 45.5965 12.6081ZM46.6538 11.7143H44.5404V11.2496H46.6538V11.7143ZM46.6538 10.8194H44.5404V10.3558H46.6538V10.8194ZM46.0123 9.92905H45.175V7.82092C45.175 7.77288 45.159 7.72484 45.126 7.68686L44.4447 6.85232V6.07922L44.9232 6.39315C45.0109 6.45013 45.126 6.43896 45.2 6.36634L45.6136 5.9608L46.1912 6.38533C46.2675 6.44119 46.3769 6.44119 46.4533 6.38533L46.8315 6.10604V6.83668L46.0294 7.62318C45.9884 7.66339 45.9634 7.71925 45.9668 7.77847L46.0123 9.92905ZM47.8011 7.67122L47.7874 7.68686C47.1243 8.45771 46.7085 8.94369 46.6561 9.92905H46.451L46.4077 7.86449L47.2063 7.08022C47.2474 7.04 47.269 6.98638 47.269 6.92717V5.67704C47.269 5.5966 47.2234 5.52063 47.1494 5.48376C47.0753 5.44578 46.9842 5.4536 46.9192 5.50499L46.3222 5.94516L45.7252 5.50499C45.6375 5.44019 45.5179 5.44801 45.4381 5.52398L45.0189 5.93399L44.349 5.49717C44.2806 5.4536 44.1951 5.44801 44.1245 5.486C44.0527 5.52398 44.0094 5.5966 44.0094 5.67704V6.92717C44.0094 6.97633 44.0254 7.02436 44.0584 7.06123L44.7397 7.89689V9.92905H44.5347C44.4823 8.93811 44.0641 8.44989 43.3954 7.67345C42.9442 7.14725 42.7027 6.47918 42.7197 5.78987C42.7551 4.24816 44.0607 3.01366 45.633 3.03266C46.3929 3.04048 47.1084 3.33876 47.645 3.87055C48.1816 4.40121 48.4767 5.10727 48.4767 5.85355C48.4744 6.51716 48.2363 7.16401 47.8011 7.67122Z" fill="white"/>
<mask id="mask1_2280_3542" style="mask-type:luminance" maskUnits="userSpaceOnUse" x="49" y="5" width="3" height="2">
<path d="M49.4961 5.89258H51.7576V6.46458H49.4961V5.89258Z" fill="white"/>
</mask>
<g mask="url(#mask1_2280_3542)">
<path d="M51.5415 6.01221H49.918C49.7983 6.01221 49.6992 6.10828 49.6992 6.22671C49.6992 6.34513 49.7983 6.44121 49.918 6.44121H51.5415C51.6622 6.44121 51.7602 6.34513 51.7602 6.22671C51.7602 6.10828 51.6622 6.01221 51.5415 6.01221Z" fill="white"/>
</g>
<mask id="mask2_2280_3542" style="mask-type:luminance" maskUnits="userSpaceOnUse" x="39" y="5" width="3" height="2">
<path d="M39.5078 5.89258H41.6212V6.46458H39.5078V5.89258Z" fill="white"/>
</mask>
<g mask="url(#mask2_2280_3542)">
<path d="M41.57 6.22671C41.57 6.10828 41.4708 6.01221 41.3512 6.01221H39.7277C39.6069 6.01221 39.5078 6.10828 39.5078 6.22671C39.5078 6.34513 39.6069 6.44121 39.7277 6.44121H41.3512C41.4708 6.44121 41.57 6.34736 41.57 6.22671Z" fill="white"/>
</g>
<path d="M48.8191 9.04868C48.7348 8.96489 48.5947 8.96489 48.5104 9.04868C48.4249 9.13135 48.4249 9.26877 48.5104 9.35144L49.6577 10.4764C49.701 10.5189 49.7556 10.5379 49.8137 10.5379C49.8707 10.5379 49.9254 10.5167 49.9698 10.4764C50.0541 10.3927 50.0541 10.2564 49.9698 10.1726L48.8191 9.04868Z" fill="white"/>
<path d="M41.3005 1.98032C41.2162 2.06299 41.2162 2.20041 41.3005 2.28308L42.4478 3.40809C42.4911 3.45166 42.5469 3.47065 42.6039 3.47065C42.6586 3.47065 42.7167 3.44831 42.76 3.40809C42.8443 3.32542 42.8443 3.188 42.76 3.10533L41.6127 1.98032C41.525 1.89653 41.3883 1.89653 41.3005 1.98032Z" fill="white"/>
<path d="M49.6577 1.98032L48.5104 3.10533C48.4249 3.188 48.4249 3.32542 48.5104 3.40809C48.5537 3.45166 48.6084 3.47065 48.6665 3.47065C48.7234 3.47065 48.7781 3.44831 48.8225 3.40809L49.9698 2.28308C50.0541 2.20041 50.0541 2.06299 49.9698 1.98032C49.8821 1.89653 49.7454 1.89653 49.6577 1.98032Z" fill="white"/>
<path d="M42.4505 9.04889L41.3043 10.1728C41.2189 10.2566 41.2189 10.3929 41.3043 10.4767C41.3476 10.5191 41.4023 10.5381 41.4604 10.5381C41.5174 10.5381 41.5721 10.5169 41.6165 10.4767L42.7626 9.35165C42.8481 9.26898 42.8481 9.13156 42.7626 9.04889C42.6749 8.96287 42.5359 8.96287 42.4505 9.04889Z" fill="white"/>
<path d="M43.0049 28.2553L44.2217 27.9603V15.2735L43.0049 14.9741V14.6792H45.6344C46.8466 14.6792 47.4527 15.2735 47.4527 16.4622V27.9603L48.6695 28.2553V28.5547H43.0049V28.2553Z" fill="white"/>
</svg>
